<mxfile host="65bd71144e">
    <diagram id="QNs_Rhx93JLZF67ZT6y0" name="Page-1">
        <mxGraphModel dx="434" dy="385" grid="1" gridSize="10" guides="1" tooltips="1" connect="1" arrows="1" fold="1" page="1" pageScale="1" pageWidth="850" pageHeight="1100" math="0" shadow="0">
            <root>
                <mxCell id="0"/>
                <mxCell id="1" parent="0"/>
                <mxCell id="2" value="&lt;font size=&quot;1&quot;&gt;&lt;b&gt;Framer animation&lt;/b&gt;&lt;/font&gt;" style="rounded=1;whiteSpace=wrap;html=1;fillColor=#6a00ff;fontColor=#ffffff;strokeColor=#3700CC;" vertex="1" parent="1">
                    <mxGeometry x="20" y="20" width="120" height="60" as="geometry"/>
                </mxCell>
                <mxCell id="4" value="mobile first workflow" style="rounded=1;whiteSpace=wrap;html=1;fillColor=#0050ef;fontColor=#ffffff;strokeColor=#001DBC;" vertex="1" parent="1">
                    <mxGeometry x="270" y="110" width="120" height="60" as="geometry"/>
                </mxCell>
                <mxCell id="7" value="" style="endArrow=classic;html=1;entryX=0;entryY=0.5;entryDx=0;entryDy=0;" edge="1" parent="1" target="4">
                    <mxGeometry width="50" height="50" relative="1" as="geometry">
                        <mxPoint x="140" y="60" as="sourcePoint"/>
                        <mxPoint x="250" y="180" as="targetPoint"/>
                        <Array as="points">
                            <mxPoint x="140" y="60"/>
                        </Array>
                    </mxGeometry>
                </mxCell>
                <mxCell id="8" value="" style="curved=1;endArrow=classic;html=1;fontFamily=Verdana;fontSize=13;entryX=0;entryY=0;entryDx=55;entryDy=0;entryPerimeter=0;" edge="1" parent="1" target="9">
                    <mxGeometry width="50" height="50" relative="1" as="geometry">
                        <mxPoint x="340" y="170" as="sourcePoint"/>
                        <mxPoint x="250" y="180" as="targetPoint"/>
                        <Array as="points">
                            <mxPoint x="250" y="230"/>
                            <mxPoint x="200" y="180"/>
                        </Array>
                    </mxGeometry>
                </mxCell>
                <mxCell id="9" value="Fully responsive and animated web interface" style="shape=cube;whiteSpace=wrap;html=1;boundedLbl=1;backgroundOutline=1;darkOpacity=0.05;darkOpacity2=0.1;fontFamily=Verdana;fontSize=13;fillColor=#d80073;fontColor=#ffffff;strokeColor=#A50040;shadow=1;" vertex="1" parent="1">
                    <mxGeometry x="120" y="230" width="130" height="100" as="geometry"/>
                </mxCell>
            </root>
        </mxGraphModel>
    </diagram>
</mxfile>